<svg width="30" height="30" viewBox="0 0 30 30" fill="none" xmlns="http://www.w3.org/2000/svg">
<path d="M14.3371 4.80123C14.7032 4.43511 15.2968 4.43511 15.6629 4.80123L26.5246 15.6629C26.8907 16.029 27.4843 16.029 27.8504 15.6629C28.2165 15.2968 28.2165 14.7032 27.8504 14.3371L16.9887 3.4754C15.8904 2.37705 14.1096 2.37706 13.0113 3.4754L2.14959 14.3371C1.78347 14.7032 1.78347 15.2968 2.14959 15.6629C2.5157 16.029 3.1093 16.029 3.47541 15.6629L14.3371 4.80123Z" fill="#D1D0D0"/>
<path d="M15 6.78997L25.1988 16.9887C25.2359 17.0259 25.2738 17.0618 25.3125 17.0964V24.8437C25.3125 26.1382 24.2632 27.1875 22.9688 27.1875H18.75C18.2322 27.1875 17.8125 26.7678 17.8125 26.25V20.625C17.8125 20.1072 17.3928 19.6875 16.875 19.6875H13.125C12.6072 19.6875 12.1875 20.1072 12.1875 20.625V26.25C12.1875 26.7678 11.7678 27.1875 11.25 27.1875H7.03125C5.73683 27.1875 4.6875 26.1382 4.6875 24.8437V17.0964C4.72616 17.0618 4.76409 17.0259 4.80124 16.9887L15 6.78997Z" fill="#D1D0D0"/>
</svg>
