<svg width="18" height="18" viewBox="0 0 18 18" fill="none" xmlns="http://www.w3.org/2000/svg">
<path d="M1.6875 2.25H2.72676C3.10903 2.25 3.44353 2.50699 3.54203 2.87635L3.82942 3.95407M5.625 10.6875C4.38236 10.6875 3.375 11.6949 3.375 12.9375H15.1875M5.625 10.6875H14.0387C14.8795 8.96202 15.6133 7.17476 16.2313 5.33438C12.66 4.42234 8.91789 3.9375 5.0625 3.9375C4.65015 3.9375 4.23911 3.94305 3.82942 3.95407M5.625 10.6875L3.82942 3.95407M4.5 15.1875C4.5 15.4982 4.24816 15.75 3.9375 15.75C3.62684 15.75 3.375 15.4982 3.375 15.1875C3.375 14.8768 3.62684 14.625 3.9375 14.625C4.24816 14.625 4.5 14.8768 4.5 15.1875ZM14.0625 15.1875C14.0625 15.4982 13.8107 15.75 13.5 15.75C13.1893 15.75 12.9375 15.4982 12.9375 15.1875C12.9375 14.8768 13.1893 14.625 13.5 14.625C13.8107 14.625 14.0625 14.8768 14.0625 15.1875Z" stroke="#2EC76D" stroke-width="1.5" stroke-linecap="round" stroke-linejoin="round"/>
</svg>
