<svg width="30" height="30" viewBox="0 0 30 30" fill="none" xmlns="http://www.w3.org/2000/svg">
<path fill-rule="evenodd" clip-rule="evenodd" d="M3.75 7.5C3.75 5.42893 5.42893 3.75 7.5 3.75H10.3125C12.3836 3.75 14.0625 5.42893 14.0625 7.5V10.3125C14.0625 12.3836 12.3836 14.0625 10.3125 14.0625H7.5C5.42893 14.0625 3.75 12.3836 3.75 10.3125V7.5ZM15.9375 7.5C15.9375 5.42893 17.6164 3.75 19.6875 3.75H22.5C24.5711 3.75 26.25 5.42893 26.25 7.5V10.3125C26.25 12.3836 24.5711 14.0625 22.5 14.0625H19.6875C17.6164 14.0625 15.9375 12.3836 15.9375 10.3125V7.5ZM3.75 19.6875C3.75 17.6164 5.42893 15.9375 7.5 15.9375H10.3125C12.3836 15.9375 14.0625 17.6164 14.0625 19.6875V22.5C14.0625 24.5711 12.3836 26.25 10.3125 26.25H7.5C5.42893 26.25 3.75 24.5711 3.75 22.5V19.6875ZM15.9375 19.6875C15.9375 17.6164 17.6164 15.9375 19.6875 15.9375H22.5C24.5711 15.9375 26.25 17.6164 26.25 19.6875V22.5C26.25 24.5711 24.5711 26.25 22.5 26.25H19.6875C17.6164 26.25 15.9375 24.5711 15.9375 22.5V19.6875Z" fill="white"/>
</svg>
