<svg width="22" height="27" viewBox="0 0 22 27" fill="none" xmlns="http://www.w3.org/2000/svg">
<path fill-rule="evenodd" clip-rule="evenodd" d="M10.4247 25.9388C10.4624 25.9607 10.4921 25.9776 10.5131 25.9894L10.548 26.0089C10.8266 26.1618 11.1722 26.1606 11.4511 26.0094L11.4869 25.9894C11.5079 25.9776 11.5376 25.9607 11.5753 25.9388C11.6508 25.8951 11.7587 25.8313 11.8944 25.7477C12.1656 25.5807 12.5484 25.3345 13.0058 25.0114C13.9189 24.3664 15.1372 23.4093 16.3582 22.1592C18.7883 19.671 21.3125 15.9327 21.3125 11.125C21.3125 5.42956 16.6954 0.8125 11 0.8125C5.30456 0.8125 0.6875 5.42956 0.6875 11.125C0.6875 15.9327 3.21165 19.671 5.64182 22.1592C6.86282 23.4093 8.08114 24.3664 8.99424 25.0114C9.45156 25.3345 9.83442 25.5807 10.1056 25.7477C10.2413 25.8313 10.3492 25.8951 10.4247 25.9388ZM11 14.875C13.0711 14.875 14.75 13.1961 14.75 11.125C14.75 9.05393 13.0711 7.375 11 7.375C8.92893 7.375 7.25 9.05393 7.25 11.125C7.25 13.1961 8.92893 14.875 11 14.875Z" fill="white"/>
</svg>
