<svg width="28" height="26" viewBox="0 0 28 26" fill="none" xmlns="http://www.w3.org/2000/svg">
<path d="M13.3371 2.80123C13.7032 2.43511 14.2968 2.43511 14.6629 2.80123L25.5246 13.6629C25.8907 14.029 26.4843 14.029 26.8504 13.6629C27.2165 13.2968 27.2165 12.7032 26.8504 12.3371L15.9887 1.4754C14.8904 0.377053 13.1096 0.377056 12.0113 1.4754L1.14959 12.3371C0.783471 12.7032 0.783471 13.2968 1.14959 13.6629C1.5157 14.029 2.1093 14.029 2.47541 13.6629L13.3371 2.80123Z" fill="white"/>
<path d="M14 4.78997L24.1988 14.9887C24.2359 15.0259 24.2738 15.0618 24.3125 15.0964V22.8437C24.3125 24.1382 23.2632 25.1875 21.9688 25.1875H17.75C17.2322 25.1875 16.8125 24.7678 16.8125 24.25V18.625C16.8125 18.1072 16.3928 17.6875 15.875 17.6875H12.125C11.6072 17.6875 11.1875 18.1072 11.1875 18.625V24.25C11.1875 24.7678 10.7678 25.1875 10.25 25.1875H6.03125C4.73683 25.1875 3.6875 24.1382 3.6875 22.8437V15.0964C3.72616 15.0618 3.76409 15.0259 3.80124 14.9887L14 4.78997Z" fill="white"/>
</svg>
