<svg width="28" height="26" viewBox="0 0 28 26" fill="none" xmlns="http://www.w3.org/2000/svg">
<path d="M5.14134 1.32279C7.73463 0.9861 10.3787 0.8125 13.0629 0.8125C15.7467 0.8125 18.3906 0.986065 20.9836 1.32269C23.3864 1.63462 25.0979 3.64921 25.2404 5.98118C24.8331 5.84518 24.4015 5.75495 23.95 5.71748C22.2143 5.57342 20.4592 5.5 18.6875 5.5C16.9158 5.5 15.1606 5.57342 13.425 5.71748C10.4771 5.96214 8.375 8.45583 8.375 11.2603V16.6171C8.375 18.7304 9.56835 20.6658 11.416 21.5973L8.10041 24.9129C7.83229 25.181 7.42905 25.2612 7.07873 25.1161C6.72841 24.971 6.5 24.6292 6.5 24.25V19.2132C6.04561 19.1645 5.59271 19.1108 5.14135 19.0522C2.63083 18.7263 0.875 16.5416 0.875 14.0783V6.29673C0.875 3.8334 2.63082 1.64873 5.14134 1.32279Z" fill="white"/>
<path d="M18.6875 7.375C16.9676 7.375 15.2642 7.44627 13.5801 7.58605C11.6559 7.74575 10.25 9.37852 10.25 11.2603V16.6171C10.25 18.5017 11.66 20.1354 13.5865 20.2927C15.1413 20.4196 16.7126 20.489 18.298 20.4988L21.7746 23.9754C22.0427 24.2435 22.4459 24.3237 22.7963 24.1786C23.1466 24.0335 23.375 23.6917 23.375 23.3125V20.3251C23.5129 20.3148 23.6507 20.304 23.7884 20.2928C25.715 20.1356 27.125 18.5019 27.125 16.6172V11.2603C27.125 9.37853 25.7191 7.74576 23.7949 7.58606C22.1108 7.44627 20.4073 7.375 18.6875 7.375Z" fill="white"/>
</svg>
